<svg width="60" height="60" viewBox="0 0 60 60" fill="none" xmlns="http://www.w3.org/2000/svg">
<path d="M33.5248 30L44.2748 19.275C44.7456 18.8042 45.0101 18.1657 45.0101 17.5C45.0101 16.8342 44.7456 16.1957 44.2748 15.725C43.8041 15.2542 43.1656 14.9897 42.4998 14.9897C41.8341 14.9897 41.1956 15.2542 40.7248 15.725L29.9998 26.475L19.2748 15.725C18.8041 15.2542 18.1656 14.9897 17.4998 14.9897C16.8341 14.9897 16.1956 15.2542 15.7248 15.725C15.2541 16.1957 14.9896 16.8342 14.9896 17.5C14.9896 18.1657 15.2541 18.8042 15.7248 19.275L26.4748 30L15.7248 40.725C15.4905 40.9574 15.3045 41.2339 15.1776 41.5385C15.0507 41.8432 14.9854 42.1699 14.9854 42.5C14.9854 42.83 15.0507 43.1568 15.1776 43.4614C15.3045 43.7661 15.4905 44.0426 15.7248 44.275C15.9573 44.5093 16.2338 44.6953 16.5384 44.8222C16.8431 44.9491 17.1698 45.0145 17.4998 45.0145C17.8299 45.0145 18.1566 44.9491 18.4613 44.8222C18.7659 44.6953 19.0424 44.5093 19.2748 44.275L29.9998 33.525L40.7248 44.275C40.9573 44.5093 41.2338 44.6953 41.5384 44.8222C41.8431 44.9491 42.1698 45.0145 42.4998 45.0145C42.8299 45.0145 43.1566 44.9491 43.4613 44.8222C43.7659 44.6953 44.0424 44.5093 44.2748 44.275C44.5092 44.0426 44.6952 43.7661 44.8221 43.4614C44.949 43.1568 45.0143 42.83 45.0143 42.5C45.0143 42.1699 44.949 41.8432 44.8221 41.5385C44.6952 41.2339 44.5092 40.9574 44.2748 40.725L33.5248 30Z" fill="black"/>
</svg>
