<svg width="42" height="42" viewBox="0 0 42 42" fill="none" xmlns="http://www.w3.org/2000/svg">
<path d="M36.75 2.625C37.4462 2.625 38.1139 2.90156 38.6062 3.39384C39.0984 3.88613 39.375 4.55381 39.375 5.25V36.75C39.375 37.4462 39.0984 38.1139 38.6062 38.6062C38.1139 39.0984 37.4462 39.375 36.75 39.375H5.25C4.55381 39.375 3.88613 39.0984 3.39384 38.6062C2.90156 38.1139 2.625 37.4462 2.625 36.75V5.25C2.625 4.55381 2.90156 3.88613 3.39384 3.39384C3.88613 2.90156 4.55381 2.625 5.25 2.625H36.75ZM5.25 0C3.85761 0 2.52226 0.553123 1.53769 1.53769C0.553123 2.52226 0 3.85761 0 5.25L0 36.75C0 38.1424 0.553123 39.4777 1.53769 40.4623C2.52226 41.4469 3.85761 42 5.25 42H36.75C38.1424 42 39.4777 41.4469 40.4623 40.4623C41.4469 39.4777 42 38.1424 42 36.75V5.25C42 3.85761 41.4469 2.52226 40.4623 1.53769C39.4777 0.553123 38.1424 0 36.75 0L5.25 0Z" fill="black"/>
<path d="M26.788 32.6969C27.0187 32.5932 27.2145 32.425 27.3519 32.2127C27.4893 32.0003 27.5624 31.7528 27.5624 31.4999V10.4999C27.5625 10.2469 27.4894 9.99924 27.352 9.78679C27.2146 9.57434 27.0188 9.40613 26.788 9.3024C26.5573 9.19867 26.3015 9.16384 26.0514 9.20212C25.8013 9.24039 25.5676 9.35012 25.3784 9.51811L13.5659 20.0181C13.4271 20.1413 13.316 20.2924 13.2399 20.4617C13.1639 20.6309 13.1245 20.8143 13.1245 20.9999C13.1245 21.1854 13.1639 21.3688 13.2399 21.5381C13.316 21.7073 13.4271 21.8585 13.5659 21.9816L25.3784 32.4816C25.5676 32.6495 25.8014 32.7592 26.0514 32.7974C26.3015 32.8356 26.5573 32.8007 26.788 32.6969Z" fill="black"/>
</svg>
