<svg width="42" height="42" viewBox="0 0 42 42" fill="none" xmlns="http://www.w3.org/2000/svg">
<path d="M36.75 2.625C37.4462 2.625 38.1139 2.90156 38.6062 3.39384C39.0984 3.88613 39.375 4.55381 39.375 5.25V36.75C39.375 37.4462 39.0984 38.1139 38.6062 38.6062C38.1139 39.0984 37.4462 39.375 36.75 39.375H5.25C4.55381 39.375 3.88613 39.0984 3.39384 38.6062C2.90156 38.1139 2.625 37.4462 2.625 36.75V5.25C2.625 4.55381 2.90156 3.88613 3.39384 3.39384C3.88613 2.90156 4.55381 2.625 5.25 2.625H36.75ZM5.25 0C3.85761 0 2.52226 0.553123 1.53769 1.53769C0.553123 2.52226 0 3.85761 0 5.25L0 36.75C0 38.1424 0.553123 39.4777 1.53769 40.4623C2.52226 41.4469 3.85761 42 5.25 42H36.75C38.1424 42 39.4777 41.4469 40.4623 40.4623C41.4469 39.4777 42 38.1424 42 36.75V5.25C42 3.85761 41.4469 2.52226 40.4623 1.53769C39.4777 0.553123 38.1424 0 36.75 0L5.25 0Z" fill="black"/>
<path d="M15.2119 32.6969C14.9812 32.5932 14.7854 32.425 14.648 32.2127C14.5106 32.0003 14.4375 31.7528 14.4375 31.4999V10.4999C14.4374 10.2469 14.5105 9.99924 14.6479 9.78679C14.7853 9.57434 14.9811 9.40613 15.2119 9.3024C15.4426 9.19867 15.6985 9.16384 15.9485 9.20212C16.1986 9.24039 16.4323 9.35012 16.6215 9.51811L28.434 20.0181C28.5728 20.1413 28.6839 20.2924 28.76 20.4617C28.8361 20.6309 28.8754 20.8143 28.8754 20.9999C28.8754 21.1854 28.8361 21.3688 28.76 21.5381C28.6839 21.7073 28.5728 21.8585 28.434 21.9816L16.6215 32.4816C16.4323 32.6495 16.1986 32.7592 15.9485 32.7974C15.6984 32.8356 15.4426 32.8007 15.2119 32.6969Z" fill="black"/>
</svg>
