<svg width="60" height="60" viewBox="0 0 60 60" fill="none" xmlns="http://www.w3.org/2000/svg">
<path d="M17.5 25C18.8261 25 20.0979 25.5268 21.0355 26.4645C21.9732 27.4021 22.5 28.6739 22.5 30C22.5 31.3261 21.9732 32.5978 21.0355 33.5355C20.0979 34.4732 18.8261 35 17.5 35C16.1739 35 14.9021 34.4732 13.9645 33.5355C13.0268 32.5978 12.5 31.3261 12.5 30C12.5 28.6739 13.0268 27.4021 13.9645 26.4645C14.9021 25.5268 16.1739 25 17.5 25ZM42.5 17.5C45.8152 17.5 48.9946 18.817 51.3388 21.1612C53.683 23.5054 55 26.6848 55 30C55 33.3152 53.683 36.4946 51.3388 38.8388C48.9946 41.183 45.8152 42.5 42.5 42.5H17.5C14.1848 42.5 11.0054 41.183 8.66117 38.8388C6.31696 36.4946 5 33.3152 5 30C5 26.6848 6.31696 23.5054 8.66117 21.1612C11.0054 18.817 14.1848 17.5 17.5 17.5H42.5ZM17.5 22.5C15.5109 22.5 13.6032 23.2902 12.1967 24.6967C10.7902 26.1032 10 28.0109 10 30C10 31.9891 10.7902 33.8968 12.1967 35.3033C13.6032 36.7098 15.5109 37.5 17.5 37.5H42.5C44.4891 37.5 46.3968 36.7098 47.8033 35.3033C49.2098 33.8968 50 31.9891 50 30C50 28.0109 49.2098 26.1032 47.8033 24.6967C46.3968 23.2902 44.4891 22.5 42.5 22.5H17.5Z" fill="black"/>
</svg>
