<svg width="60" height="60" viewBox="0 0 60 60" fill="none" xmlns="http://www.w3.org/2000/svg">
<path d="M42.5 17.5H17.5C14.1848 17.5 11.0054 18.817 8.66117 21.1612C6.31696 23.5054 5 26.6848 5 30C5 33.3152 6.31696 36.4946 8.66117 38.8388C11.0054 41.183 14.1848 42.5 17.5 42.5H42.5C45.8152 42.5 48.9946 41.183 51.3388 38.8388C53.683 36.4946 55 33.3152 55 30C55 26.6848 53.683 23.5054 51.3388 21.1612C48.9946 18.817 45.8152 17.5 42.5 17.5ZM42.5 37.5C40.5109 37.5 38.6032 36.7098 37.1967 35.3033C35.7902 33.8968 35 31.9891 35 30C35 28.0109 35.7902 26.1032 37.1967 24.6967C38.6032 23.2902 40.5109 22.5 42.5 22.5C44.4891 22.5 46.3968 23.2902 47.8033 24.6967C49.2098 26.1032 50 28.0109 50 30C50 31.9891 49.2098 33.8968 47.8033 35.3033C46.3968 36.7098 44.4891 37.5 42.5 37.5Z" fill="black"/>
</svg>
