<svg width="37" height="42" viewBox="0 0 37 42" fill="none" xmlns="http://www.w3.org/2000/svg">
<g clip-path="url(#clip0)">
<path d="M32.8125 2.625H3.9375C2.89321 2.625 1.89169 3.03984 1.15327 3.77827C0.414843 4.51669 0 5.51821 0 6.5625L0 35.4375C0 36.4818 0.414843 37.4833 1.15327 38.2217C1.89169 38.9602 2.89321 39.375 3.9375 39.375H15.1963V26.8808H10.0283V21H15.1963V16.5178C15.1963 11.4196 18.2314 8.60344 22.8802 8.60344C25.1065 8.60344 27.4345 9.00047 27.4345 9.00047V14.0044H24.8694C22.342 14.0044 21.5537 15.5728 21.5537 17.1814V21H27.1958L26.2935 26.8808H21.5537V39.375H32.8125C33.8568 39.375 34.8583 38.9602 35.5967 38.2217C36.3352 37.4833 36.75 36.4818 36.75 35.4375V6.5625C36.75 5.51821 36.3352 4.51669 35.5967 3.77827C34.8583 3.03984 33.8568 2.625 32.8125 2.625Z" fill="black"/>
</g>
<defs>
<clipPath id="clip0">
<rect width="36.75" height="42" fill="white"/>
</clipPath>
</defs>
</svg>
