<svg width="42" height="42" viewBox="0 0 42 42" fill="none" xmlns="http://www.w3.org/2000/svg">
<g clip-path="url(#clip0)">
<path d="M42 9.54978V33.8905C42 35.4725 40.719 36.7535 39.137 36.7535H32.4538V20.5275L21 29.12L9.54625 20.5275V36.7553H2.863C2.48688 36.7553 2.11444 36.6812 1.76697 36.5372C1.4195 36.3932 1.10381 36.1822 0.837935 35.9161C0.572058 35.6501 0.361207 35.3343 0.217431 34.9867C0.0736547 34.6391 -0.000229368 34.2667 5.3489e-07 33.8905V9.54978C5.3489e-07 6.00953 4.04075 3.98828 6.87225 6.11278L9.54625 8.12003L21 16.709L32.4538 8.11653L35.1278 6.11278C37.9575 3.99003 42 6.00953 42 9.54978Z" fill="black"/>
</g>
<defs>
<clipPath id="clip0">
<rect width="42" height="42" fill="white"/>
</clipPath>
</defs>
</svg>
