<svg width="42" height="42" viewBox="0 0 42 42" fill="none" xmlns="http://www.w3.org/2000/svg">
<path d="M20.9993 0C15.2913 0 14.5799 0.0275625 12.346 0.122062C10.103 0.232312 8.5857 0.580125 7.24695 1.09987C5.84581 1.62884 4.57689 2.45702 3.52864 3.52669C2.45599 4.57248 1.62735 5.84211 1.10183 7.245C0.582078 8.58375 0.234266 10.101 0.124016 12.3441C0.0229531 14.5792 0.00195312 15.2893 0.00195312 20.9974C0.00195312 26.7054 0.0295156 27.4168 0.124016 29.6507C0.234266 31.8872 0.582078 33.411 1.10183 34.7497C1.63079 36.1509 2.45897 37.4198 3.52864 38.4681C4.57444 39.5407 5.84406 40.3694 7.24695 40.8949C8.5857 41.4081 10.1095 41.7624 12.346 41.8727C14.5812 41.9737 15.2913 41.9947 20.9993 41.9947C26.7074 41.9947 27.4188 41.9672 29.6526 41.8727C31.8891 41.7624 33.413 41.4067 34.7517 40.8949C36.1528 40.3659 37.4218 39.5377 38.47 38.4681C39.544 37.4234 40.3729 36.1534 40.8968 34.7497C41.41 33.411 41.7644 31.8872 41.8746 29.6507C41.9757 27.4155 41.9967 26.7054 41.9967 20.9974C41.9967 15.2893 41.9691 14.5779 41.8746 12.3441C41.7644 10.1076 41.4087 8.57587 40.8968 7.245C40.3679 5.84386 39.5397 4.57493 38.47 3.52669C37.4254 2.45265 36.1554 1.6238 34.7517 1.09987C33.413 0.580125 31.8891 0.232312 29.6526 0.122062C27.4175 0.021 26.7074 0 20.9993 0ZM20.9993 3.78C26.605 3.78 27.2744 3.80756 29.4899 3.90206C31.5335 3.99787 32.6465 4.33912 33.3854 4.62787C34.2989 4.96509 35.1257 5.5018 35.8056 6.19894C36.5016 6.87596 37.0363 7.70089 37.3701 8.61262C37.6589 9.35156 38.0001 10.4646 38.096 12.5081C38.1905 14.7236 38.218 15.3943 38.218 20.9987C38.218 26.6031 38.1905 27.2737 38.0881 29.4892C37.9778 31.5328 37.6366 32.6458 37.3491 33.3847C36.9515 34.3704 36.5078 35.0595 35.7755 35.805C35.0933 36.4978 34.267 37.0319 33.3552 37.3695C32.6255 37.6582 31.4967 37.9995 29.4453 38.0953C27.218 38.1898 26.5617 38.2174 20.9416 38.2174C15.3215 38.2174 14.6665 38.1898 12.4366 38.0874C10.393 37.9772 9.26558 37.6359 8.52664 37.3485C7.52914 36.9508 6.84533 36.5072 6.11295 35.7748C5.37402 35.0359 4.90414 34.3324 4.54189 33.3546C4.24789 32.6248 3.91189 31.4961 3.80295 29.4446C3.72814 27.2436 3.6927 26.5611 3.6927 20.9672C3.6927 15.3759 3.72814 14.6921 3.80295 12.4635C3.91189 10.4121 4.24789 9.28594 4.54189 8.55356C4.90414 7.55475 5.37533 6.87225 6.11295 6.13331C6.84402 5.40225 7.52914 4.92975 8.52664 4.55962C9.26558 4.27219 10.3655 3.93094 12.4169 3.82856C14.6442 3.7485 15.3005 3.71962 20.9127 3.71962L20.9993 3.78ZM20.9993 10.2204C19.5836 10.2199 18.1816 10.4984 16.8736 11.0399C15.5655 11.5815 14.377 12.3755 13.3759 13.3765C12.3748 14.3776 11.5808 15.5662 11.0393 16.8742C10.4977 18.1823 10.2192 19.5843 10.2198 21C10.2192 22.4157 10.4977 23.8177 11.0393 25.1258C11.5808 26.4338 12.3748 27.6224 13.3759 28.6235C14.377 29.6245 15.5655 30.4185 16.8736 30.9601C18.1816 31.5016 19.5836 31.7801 20.9993 31.7796C22.4151 31.7801 23.817 31.5016 25.1251 30.9601C26.4332 30.4185 27.6217 29.6245 28.6228 28.6235C29.6239 27.6224 30.4179 26.4338 30.9594 25.1258C31.5009 23.8177 31.7794 22.4157 31.7789 21C31.7794 19.5843 31.5009 18.1823 30.9594 16.8742C30.4179 15.5662 29.6239 14.3776 28.6228 13.3765C27.6217 12.3755 26.4332 11.5815 25.1251 11.0399C23.817 10.4984 22.4151 10.2199 20.9993 10.2204ZM20.9993 27.9996C17.1301 27.9996 13.9998 24.8692 13.9998 21C13.9998 17.1307 17.1301 14.0004 20.9993 14.0004C24.8686 14.0004 27.9989 17.1307 27.9989 21C27.9989 24.8692 24.8686 27.9996 20.9993 27.9996ZM34.7333 9.78994C34.7326 10.4589 34.4664 11.1002 33.9932 11.5729C33.5199 12.0457 32.8783 12.3112 32.2094 12.3112C31.8786 12.3112 31.5511 12.2461 31.2455 12.1195C30.9399 11.9929 30.6623 11.8074 30.4284 11.5735C30.1945 11.3397 30.009 11.062 29.8824 10.7564C29.7559 10.4508 29.6907 10.1233 29.6907 9.79256C29.6907 9.4618 29.7559 9.13428 29.8824 8.8287C30.009 8.52312 30.1945 8.24546 30.4284 8.01158C30.6623 7.7777 30.9399 7.59217 31.2455 7.4656C31.5511 7.33902 31.8786 7.27387 32.2094 7.27387C33.5967 7.27387 34.7333 8.40262 34.7333 9.78994Z" fill="black"/>
</svg>
