<svg width="37" height="42" viewBox="0 0 37 42" fill="none" xmlns="http://www.w3.org/2000/svg">
<g clip-path="url(#clip0)">
<path d="M32.8125 2.625H3.9375C1.76367 2.625 0 4.38867 0 6.5625V35.4375C0 37.6113 1.76367 39.375 3.9375 39.375H32.8125C34.9863 39.375 36.75 37.6113 36.75 35.4375V6.5625C36.75 4.38867 34.9863 2.625 32.8125 2.625ZM28.8012 15.6516C28.8176 15.8813 28.8176 16.1191 28.8176 16.3488C28.8176 23.4609 23.4035 31.6559 13.5105 31.6559C10.459 31.6559 7.62891 30.7699 5.25 29.2441C5.68477 29.2934 6.10313 29.3098 6.54609 29.3098C9.06445 29.3098 11.3777 28.4566 13.2234 27.0129C10.8609 26.9637 8.87578 25.4133 8.19492 23.2805C9.02344 23.4035 9.76992 23.4035 10.623 23.182C8.16211 22.6816 6.31641 20.516 6.31641 17.8992V17.8336C7.03008 18.2355 7.8668 18.4816 8.74453 18.5145C8.0066 18.0236 7.40167 17.3577 6.98371 16.5762C6.56575 15.7947 6.34777 14.9218 6.34922 14.0355C6.34922 13.0348 6.61172 12.116 7.0793 11.3203C9.72891 14.5852 13.7074 16.718 18.1699 16.9477C17.407 13.2973 20.1387 10.3359 23.4199 10.3359C24.9703 10.3359 26.3648 10.984 27.3492 12.034C28.5633 11.8043 29.7281 11.3531 30.7617 10.7379C30.3598 11.9848 29.5148 13.0348 28.3992 13.6992C29.482 13.5844 30.532 13.2809 31.5 12.8625C30.7699 13.9371 29.8512 14.8887 28.8012 15.6516Z" fill="black"/>
</g>
<defs>
<clipPath id="clip0">
<rect width="36.75" height="42" fill="white"/>
</clipPath>
</defs>
</svg>
