<svg width="30" height="24" viewBox="0 0 30 24" fill="none" xmlns="http://www.w3.org/2000/svg">
<path d="M25.5 9H24.75L19.6509 2.62594C19.3698 2.27465 19.0133 1.99107 18.6078 1.79617C18.2022 1.60128 17.7581 1.50006 17.3081 1.5H7.28109C6.05438 1.5 4.95141 2.24672 4.49578 3.38578L2.25 9.10594C0.958125 9.44062 0 10.6036 0 12V17.25C0 17.6644 0.335625 18 0.75 18H3C3 20.4853 5.01469 22.5 7.5 22.5C9.98531 22.5 12 20.4853 12 18H18C18 20.4853 20.0147 22.5 22.5 22.5C24.9853 22.5 27 20.4853 27 18H29.25C29.6644 18 30 17.6644 30 17.25V13.5C30 11.0147 27.9853 9 25.5 9ZM7.5 20.25C6.25922 20.25 5.25 19.2408 5.25 18C5.25 16.7592 6.25922 15.75 7.5 15.75C8.74078 15.75 9.75 16.7592 9.75 18C9.75 19.2408 8.74078 20.25 7.5 20.25ZM10.875 9H5.48109L7.28109 4.5H10.875V9ZM13.125 9V4.5H17.3081L20.9081 9H13.125ZM22.5 20.25C21.2592 20.25 20.25 19.2408 20.25 18C20.25 16.7592 21.2592 15.75 22.5 15.75C23.7408 15.75 24.75 16.7592 24.75 18C24.75 19.2408 23.7408 20.25 22.5 20.25Z" fill="black"/>
</svg>
