<svg width="24" height="24" viewBox="0 0 24 24" fill="none" xmlns="http://www.w3.org/2000/svg">
<path d="M22.6466 11.5022C21.6524 7.0074 20.1561 4.60834 17.9366 3.95302C17.47 3.81617 16.9861 3.7478 16.4999 3.75005C15.8572 3.75005 15.2975 3.90662 14.7055 4.07255C13.992 4.27271 13.1816 4.50005 11.9999 4.50005C10.8181 4.50005 10.0072 4.27318 9.29235 4.07302C8.69985 3.90662 8.14063 3.75005 7.49985 3.75005C6.99708 3.74831 6.49651 3.81646 6.01251 3.95255C3.8047 4.60505 2.30938 7.00318 1.30063 11.4994C0.215946 16.3379 0.749852 19.3927 2.79782 20.1015C3.07855 20.2004 3.37392 20.2514 3.67157 20.2524C5.07454 20.2524 6.19954 19.0838 6.96829 18.1271C7.83688 17.0443 8.8536 16.4949 11.9999 16.4949C14.81 16.4949 15.973 16.876 16.9775 18.1271C17.6089 18.9136 18.2056 19.464 18.8009 19.8104C19.5927 20.2707 20.3839 20.3729 21.1522 20.109C22.3625 19.696 23.0563 18.6043 23.2147 16.8633C23.3352 15.5283 23.1495 13.7747 22.6466 11.5022ZM9.74985 11.2501H8.24985V12.7501C8.24985 12.949 8.17083 13.1397 8.03018 13.2804C7.88953 13.421 7.69876 13.5001 7.49985 13.5001C7.30094 13.5001 7.11017 13.421 6.96952 13.2804C6.82887 13.1397 6.74985 12.949 6.74985 12.7501V11.2501H5.24985C5.05094 11.2501 4.86017 11.171 4.71952 11.0304C4.57887 10.8897 4.49985 10.699 4.49985 10.5001C4.49985 10.3011 4.57887 10.1104 4.71952 9.96972C4.86017 9.82907 5.05094 9.75005 5.24985 9.75005H6.74985V8.25005C6.74985 8.05114 6.82887 7.86038 6.96952 7.71972C7.11017 7.57907 7.30094 7.50005 7.49985 7.50005C7.69876 7.50005 7.88953 7.57907 8.03018 7.71972C8.17083 7.86038 8.24985 8.05114 8.24985 8.25005V9.75005H9.74985C9.94876 9.75005 10.1395 9.82907 10.2802 9.96972C10.4208 10.1104 10.4999 10.3011 10.4999 10.5001C10.4999 10.699 10.4208 10.8897 10.2802 11.0304C10.1395 11.171 9.94876 11.2501 9.74985 11.2501ZM13.6874 11.4376C13.5019 11.4376 13.3207 11.3826 13.1665 11.2796C13.0123 11.1765 12.8922 11.0301 12.8212 10.8588C12.7503 10.6875 12.7317 10.499 12.7679 10.3172C12.804 10.1353 12.8933 9.96825 13.0244 9.83714C13.1556 9.70603 13.3226 9.61674 13.5045 9.58057C13.6863 9.54439 13.8748 9.56296 14.0461 9.63392C14.2174 9.70487 14.3638 9.82504 14.4669 9.97921C14.5699 10.1334 14.6249 10.3146 14.6249 10.5001C14.6249 10.7487 14.5261 10.9872 14.3503 11.163C14.1745 11.3388 13.936 11.4376 13.6874 11.4376ZM15.7499 13.5001C15.5643 13.5001 15.383 13.445 15.2288 13.3419C15.0745 13.2388 14.9544 13.0922 14.8835 12.9208C14.8126 12.7493 14.7942 12.5607 14.8305 12.3788C14.8669 12.1969 14.9564 12.0298 15.0878 11.8988C15.2191 11.7678 15.3864 11.6787 15.5684 11.6428C15.7504 11.6069 15.939 11.6258 16.1102 11.6971C16.2815 11.7684 16.4278 11.8889 16.5305 12.0434C16.6332 12.1979 16.6878 12.3794 16.6874 12.5649C16.6867 12.8131 16.5877 13.051 16.4119 13.2263C16.2362 13.4016 15.9981 13.5001 15.7499 13.5001ZM15.7499 9.37505C15.5644 9.37505 15.3832 9.32007 15.229 9.21706C15.0748 9.11404 14.9547 8.96763 14.8837 8.79632C14.8128 8.62501 14.7942 8.43651 14.8304 8.25466C14.8665 8.0728 14.9558 7.90575 15.0869 7.77464C15.2181 7.64353 15.3851 7.55424 15.567 7.51807C15.7488 7.48189 15.9373 7.50046 16.1086 7.57142C16.2799 7.64237 16.4263 7.76254 16.5294 7.91671C16.6324 8.07088 16.6874 8.25213 16.6874 8.43755C16.6874 8.68619 16.5886 8.92465 16.4128 9.10047C16.237 9.27628 15.9985 9.37505 15.7499 9.37505ZM17.8124 11.4376C17.6269 11.4376 17.4457 11.3826 17.2915 11.2796C17.1373 11.1765 17.0172 11.0301 16.9462 10.8588C16.8753 10.6875 16.8567 10.499 16.8929 10.3172C16.929 10.1353 17.0183 9.96825 17.1494 9.83714C17.2806 9.70603 17.4476 9.61674 17.6295 9.58057C17.8113 9.54439 17.9998 9.56296 18.1711 9.63392C18.3424 9.70487 18.4888 9.82504 18.5919 9.97921C18.6949 10.1334 18.7499 10.3146 18.7499 10.5001C18.7499 10.7487 18.6511 10.9872 18.4753 11.163C18.2994 11.3388 18.061 11.4376 17.8124 11.4376Z" fill="black"/>
</svg>
